<?xml version="1.0" encoding="UTF-8"?>
<svg id="artwork" xmlns="http://www.w3.org/2000/svg" version="1.1" viewBox="0 0 120 40">
  <!-- Generator: Adobe Illustrator 30.0.0, SVG Export Plug-In . SVG Version: 2.1.1 Build 123)  -->
  <defs>
    <style>
      .st0 {
        fill: #fff;
      }

      .st1 {
        fill: none;
        stroke: #fff;
        stroke-miterlimit: 10;
        stroke-width: 1.15px;
      }
    </style>
  </defs>
  <g>
    <path d="M115.38.69c2.35,0,4.26,1.91,4.26,4.26v30.45c0,2.35-1.91,4.26-4.26,4.26H4.8c-2.35,0-4.26-1.91-4.26-4.26V4.95C.54,2.6,2.45.69,4.8.69h110.58"/>
    <path class="st0" d="M59.74,23.67c-2.06,0-3.74,1.57-3.74,3.72s1.68,3.72,3.74,3.72,3.74-1.58,3.74-3.72-1.68-3.72-3.74-3.72ZM59.74,29.65c-1.13,0-2.1-.93-2.1-2.26s.97-2.26,2.1-2.26,2.1.91,2.1,2.26-.97,2.26-2.1,2.26ZM51.58,23.67c-2.06,0-3.74,1.57-3.74,3.72s1.68,3.72,3.74,3.72,3.74-1.58,3.74-3.72-1.68-3.72-3.74-3.72ZM51.58,29.65c-1.13,0-2.1-.93-2.1-2.26s.97-2.26,2.1-2.26,2.1.91,2.1,2.26-.97,2.26-2.1,2.26ZM41.88,24.81v1.58h3.78c-.11.89-.41,1.54-.86,1.99-.55.55-1.41,1.16-2.92,1.16-2.33,0-4.15-1.88-4.15-4.21s1.82-4.21,4.15-4.21c1.26,0,2.18.49,2.85,1.13l1.12-1.12c-.94-.9-2.2-1.59-3.97-1.59-3.19,0-5.87,2.6-5.87,5.78s2.68,5.78,5.87,5.78c1.72,0,3.02-.56,4.03-1.62,1.04-1.04,1.37-2.51,1.37-3.7,0-.37-.03-.71-.08-.99h-5.32ZM81.56,26.04c-.31-.83-1.26-2.37-3.19-2.37s-3.52,1.51-3.52,3.72c0,2.09,1.58,3.72,3.7,3.72,1.71,0,2.69-1.04,3.11-1.65l-1.27-.85c-.43.62-1,1.03-1.83,1.03s-1.42-.38-1.8-1.13l4.98-2.06-.17-.43h0s0,0,0,0ZM76.48,27.28c-.04-1.44,1.12-2.18,1.95-2.18.65,0,1.2.33,1.38.79,0,0-3.33,1.38-3.33,1.38ZM72.43,30.89h1.64v-10.95h-1.64v10.95ZM69.75,24.5h-.05c-.37-.44-1.07-.83-1.96-.83-1.86,0-3.57,1.64-3.57,3.74s1.71,3.71,3.57,3.71c.89,0,1.59-.4,1.96-.85h.05v.53c0,1.42-.76,2.19-1.99,2.19-1,0-1.62-.72-1.88-1.33l-1.42.59c.41.99,1.5,2.2,3.3,2.2,1.92,0,3.54-1.13,3.54-3.88v-6.69h-1.55v.61h0ZM67.87,29.65c-1.13,0-2.08-.94-2.08-2.24s.94-2.27,2.08-2.27,1.99.96,1.99,2.27-.88,2.24-1.99,2.24ZM89.23,19.94h-3.92v10.95h1.64v-4.15h2.28c1.81,0,3.59-1.31,3.59-3.4s-1.78-3.4-3.59-3.4h0ZM89.27,25.22h-2.32v-3.75h2.32c1.22,0,1.91,1.01,1.91,1.88s-.69,1.88-1.91,1.88h0ZM99.37,23.65c-1.18,0-2.41.52-2.92,1.68l1.45.61c.31-.61.89-.8,1.49-.8.85,0,1.71.51,1.72,1.41v.11c-.3-.17-.93-.43-1.71-.43-1.56,0-3.15.86-3.15,2.47,0,1.46,1.28,2.41,2.72,2.41,1.1,0,1.71-.49,2.09-1.07h.05v.85h1.58v-4.2c0-1.94-1.45-3.03-3.33-3.03h0ZM99.18,29.64c-.53,0-1.28-.27-1.28-.93,0-.85.93-1.17,1.73-1.17.72,0,1.06.15,1.49.37-.13,1.01-1,1.73-1.94,1.73h0ZM108.45,23.88l-1.87,4.75h-.05l-1.94-4.75h-1.76l2.92,6.64-1.66,3.69h1.71l4.49-10.33s-1.82,0-1.82,0ZM93.73,30.89h1.64v-10.95h-1.64v10.95Z"/>
    <g>
      <path class="st1" d="M18.24,19.59l-10.8,11.47h0c.33,1.25,1.47,2.17,2.82,2.17.54,0,1.05-.15,1.48-.4l.03-.02,12.16-7.02-5.69-6.2h0Z"/>
      <path class="st1" d="M29.18,17.64h-.01l-5.25-3.05-5.92,5.26,5.93,5.93,5.22-3.01c.92-.49,1.54-1.46,1.54-2.57s-.61-2.07-1.52-2.56c0,0,0,0,0,0Z"/>
      <path class="st1" d="M7.43,9.29c-.06.24-.1.49-.1.75v20.27c0,.26.03.51.1.75l11.18-11.18S7.43,9.29,7.43,9.29Z"/>
      <path class="st1" d="M18.32,20.17l5.59-5.59-12.15-7.05c-.44-.26-.96-.42-1.51-.42-1.35,0-2.49.92-2.82,2.17h0l10.88,10.88h0Z"/>
    </g>
  </g>
  <g id="_Group_4">
    <g>
      <path class="st0" d="M38.05,8.81c1.48-.11,2.76,1,2.86,2.48.01.18,0,.35-.01.53,0,1.93-1.05,3.05-2.85,3.05h-2.19v-6.06h2.19ZM36.8,14.01h1.14c1.05.06,1.95-.74,2.01-1.79,0-.13,0-.26-.02-.39.14-1.04-.59-2.01-1.63-2.15-.12-.02-.24-.02-.37-.01h-1.14v4.34Z"/>
      <path class="st0" d="M41.96,12.58c-.11-1.19.76-2.25,1.95-2.36,1.19-.11,2.25.76,2.36,1.95.01.14.01.28,0,.41.12,1.19-.76,2.25-1.95,2.37-1.19.12-2.25-.76-2.37-1.95-.01-.14-.01-.28,0-.42ZM45.34,12.58c0-.99-.45-1.57-1.23-1.57s-1.23.58-1.23,1.57.44,1.57,1.23,1.57c.78,0,1.23-.58,1.23-1.57h0Z"/>
      <path class="st0" d="M52,14.87h-.94l-.94-3.37h-.07l-.94,3.37h-.93l-1.26-4.57h.91l.82,3.49h.07l.94-3.49h.87l.94,3.49h.07l.81-3.49h.9l-1.25,4.57Z"/>
      <path class="st0" d="M54.31,10.3h.87v.73h.07c.23-.53.78-.86,1.36-.81.82-.06,1.53.55,1.59,1.37,0,.11,0,.22-.01.33v2.96h-.9v-2.73c0-.73-.32-1.1-.99-1.1-.58-.03-1.07.42-1.1,1,0,.05,0,.11,0,.16v2.67h-.9v-4.57Z"/>
      <path class="st0" d="M59.63,8.51h.9v6.35h-.9v-6.35Z"/>
      <path class="st0" d="M61.79,12.58c-.11-1.19.76-2.25,1.95-2.36,1.19-.11,2.25.76,2.36,1.95.01.14.01.28,0,.41.12,1.19-.76,2.25-1.95,2.37s-2.25-.76-2.37-1.95c-.01-.14-.01-.28,0-.42ZM65.17,12.58c0-.99-.45-1.57-1.23-1.57s-1.23.58-1.23,1.57.44,1.57,1.23,1.57c.78,0,1.23-.58,1.23-1.57Z"/>
      <path class="st0" d="M67.05,13.57c0-.82.61-1.3,1.7-1.36l1.24-.07v-.39c0-.48-.32-.76-.94-.76-.5,0-.85.18-.95.51h-.87c.09-.79.83-1.29,1.87-1.29,1.15,0,1.79.57,1.79,1.54v3.12h-.87v-.64h-.07c-.29.47-.82.74-1.37.72-.76.08-1.44-.47-1.52-1.23,0-.05,0-.09,0-.14ZM69.99,13.18v-.38l-1.12.07c-.63.04-.91.26-.91.66s.36.65.85.65c.59.06,1.12-.37,1.18-.96,0-.01,0-.02,0-.04Z"/>
      <path class="st0" d="M72.07,12.58c0-1.44.74-2.36,1.9-2.36.58-.03,1.13.29,1.4.8h.07v-2.51h.9v6.35h-.86v-.72h-.07c-.29.51-.85.82-1.44.8-1.16,0-1.9-.91-1.9-2.36ZM73,12.58c0,.97.46,1.55,1.22,1.55s1.23-.59,1.23-1.55-.47-1.55-1.23-1.55-1.22.59-1.22,1.55h0Z"/>
      <path class="st0" d="M80.07,12.58c-.11-1.19.76-2.25,1.95-2.36s2.25.76,2.36,1.95c.01.14.01.28,0,.41.12,1.19-.76,2.25-1.95,2.37-1.19.12-2.25-.76-2.37-1.95-.01-.14-.01-.28,0-.42ZM83.45,12.58c0-.99-.45-1.57-1.23-1.57s-1.23.58-1.23,1.57.44,1.57,1.23,1.57c.78,0,1.23-.58,1.23-1.57Z"/>
      <path class="st0" d="M85.59,10.3h.87v.73h.07c.23-.53.78-.86,1.36-.81.82-.06,1.53.55,1.59,1.37,0,.11,0,.22-.01.33v2.96h-.9v-2.73c0-.73-.32-1.1-.99-1.1-.58-.03-1.07.42-1.1,1,0,.05,0,.11,0,.16v2.67h-.9v-4.57Z"/>
    </g>
  </g>
</svg>